# xmcd CD database file
#
# Track frame offsets:
#	150
#	12730
#	24690
#	36850
#	47960
#	58247
#	69045
#	82300
#	92972
#	105125
#	115642
#	131552
#	143760
#	155032
#	166907
#	178422
#	190440
#	202757
#	216720
#	228645
#	239382
#	251617
#	262052
#	270777
#	283342
#	297377
#	309487
#
# Disc length: 4274 seconds
#
# Revision: 0
# Processed by: cddbd v1.5.2PL0 Copyright (c) Steve Scherf et al.
# Submitted via: CDex 1.70beta2
#
DISCID=a110b01b
DTITLE=Jones Classic Country - Jones Classic Country CCC-612
DYEAR=0000
DGENRE=Country
TTITLE0=Tom T Hall/Year That Claton Delaney Died
TTITLE1=Jerry Lee Lewis/What's Made Milwaukee Famous (Has Made A Loser Out Of Me)
TTITLE2=Toommy Overstreet/(Jeannie Marie) You Were A Lady
TTITLE3=Faron Young/Hello Walls
TTITLE4=Wilburn Brothers/Trouble's Back In Town
TTITLE5=Waylon Jennings/Only Daddy That'll Walk The Line
TTITLE6=David Houston and Tammy Wynette/My Elusive Dreams
TTITLE7=Johnny Rodriguez/You Always Come Back (To Hurting Me)
TTITLE8=Osborne Brothers/Rocky Top
TTITLE9=David Houston/With One Exception
TTITLE10=Bill Anderson/Mama Sang A Song
TTITLE11=Buck Owens/Foolin' Around
TTITLE12=Connie Smith/Then And Only Then
TTITLE13=Conway Twitty/Darling, You Know I Wouldn't Lie
TTITLE14=Tennessee Ernie Ford/Blackberry Boogie
TTITLE15=Ray Pico/My Shoes Keep Walking Back To You
TTITLE16=Jerry Lee Lewis/She Even Woke Me Up To Say Goodbye
TTITLE17=Marie Davis/Marie's Boogie Woogie
TTITLE18=George Jones/Window Up Above
TTITLE19=Faron Young/Live Fast, Love Hard, And Die Young
TTITLE20=Hank Williams Sr/Long Gone Lonesome Blues
TTITLE21=Charley Pride/Just Between You And Me
TTITLE22=Jerry Lee Lewis/Great Balls Of Fire
TTITLE23=Jerry Wallace/If You Leave Me Tonight I'll Cry
TTITLE24=Ernest Tubb and Red Foley/Goodnight Irene
TTITLE25=Patsy Cline/Sweet Dreams (Of You)
TTITLE26=Buck Owens/Excuse Me (I Think I've Got A Heartache)
EXTD=YEAR: 0000
EXTT0=
EXTT1=
EXTT2=
EXTT3=
EXTT4=
EXTT5=
EXTT6=
EXTT7=
EXTT8=
EXTT9=
EXTT10=
EXTT11=
EXTT12=
EXTT13=
EXTT14=
EXTT15=
EXTT16=
EXTT17=
EXTT18=
EXTT19=
EXTT20=
EXTT21=
EXTT22=
EXTT23=
EXTT24=
EXTT25=
EXTT26=
PLAYORDER=
